<?xml version="1.0" encoding="utf-8"?>
<!-- Generator: Adobe Illustrator 16.0.0, SVG Export Plug-In . SVG Version: 6.00 Build 0)  -->
<!DOCTYPE svg PUBLIC "-//W3C//DTD SVG 1.1//EN" "http://www.w3.org/Graphics/SVG/1.1/DTD/svg11.dtd">
<svg version="1.1" id="Layer_1" xmlns="http://www.w3.org/2000/svg" xmlns:xlink="http://www.w3.org/1999/xlink" x="0px" y="0px"
	 width="542px" height="252px" viewBox="0 0 542 252" enable-background="new 0 0 542 252" xml:space="preserve">
<g>
	<g opacity="0.2">
		<image overflow="visible" width="573" height="282" xlink:href="74BA4B99.png"  transform="matrix(1 0 0 1 -4 -10)">
		</image>
	</g>
	<g>
		<g>
			<path fill="#53C2B6" d="M370.543,115.062c16.889-1.889,32.261,10.409,34.137,27.295l3.135,28.155
				c1.898,16.9-10.392,32.261-27.295,34.134l-215.254,23.954c-16.9,1.888-32.266-10.392-34.151-27.291l-3.129-28.167
				c-1.884-16.894,10.416-32.254,27.309-34.133L370.543,115.062z"/>
			<g>
				<path fill="#FFFFFF" d="M258.52,158.324c0.012,0.14,0.039,0.931,0.094,2.366c-0.224,0.252-0.579,0.589-1.08,1.004
					c-0.568,0.14-1.346,0.358-2.326,0.661c-2.684,1.479-5.235,2.3-7.67,2.471c-1.767,0.115-2.828-0.025-3.189-0.429
					c-0.261-0.272-0.991-2.546-2.193-6.825c-0.021-0.331-0.22-0.773-0.595-1.323c-1.555,0.396-2.26,1.688-2.106,3.881
					c0.045,0.667,0.236,1.677,0.566,3.011c0.331,1.347,0.519,2.354,0.563,3.023c0.024,0.331,0.106,0.83,0.248,1.491
					c0.146,0.662,0.219,1.161,0.246,1.492c0.053,0.045,0.171,0.033,0.357-0.022c1.973-0.614,3.787-1.026,5.453-1.239
					c1.849-0.27,3.052,0.106,3.6,1.121c0.415,1.217,0.958,3.102,1.607,5.642c0.242,1.467,0.429,2.415,0.551,2.838
					c0.313,1.032,0.217,1.778-0.276,2.243c-0.903,0.83-3.604,1.952-8.106,3.362c-0.091,0.053-0.229,0.16-0.409,0.316
					c0.401,2.367,0.698,4.29,0.9,5.76c0.05,0.045,0.098,0.112,0.159,0.202c0.798,4.071,1.437,7.739,1.899,11.02
					c0.379,2.703,0.512,4.654,0.404,5.86c-0.059,0.58-0.709,1.2-1.96,1.862c-1.729,0.645-3.942,1.178-6.646,1.604
					c-0.33,0.073-1.701,0.403-4.104,1.001c-1.553,0.398-2.902,0.631-4.049,0.704c-0.855,0.067-1.605,0.017-2.234-0.126
					c-0.014-0.194-0.196-0.373-0.544-0.539c-0.007-0.148,0.025-0.339,0.106-0.586c-0.22-0.415-0.458-1.071-0.709-1.969
					c-0.112-0.899-0.16-2.669-0.15-5.302c0.029-5.897-0.362-11.959-1.172-18.179c-0.25-0.084-1.691-0.174-4.335-0.28
					c-1.723-0.07-2.629-0.611-2.696-1.612c-0.013-0.238-0.009-0.479,0.021-0.724c-0.029,0.196-0.087-0.255-0.164-1.352
					c-0.016-0.238-0.016-0.574,0.002-1.007c0.022-0.435,0.022-0.768,0.006-1.004l-0.114-0.571c-0.076-1.189,0.007-2.658,0.275-4.402
					c0.061-0.527,0.321-1.268,0.782-2.213c0.135-0.151,0.511-0.297,1.123-0.435c0.322-0.117,0.941-0.255,1.842-0.415
					c0.516-0.081,1.211-0.101,2.078-0.067c-0.021-0.961-0.284-2.714-0.793-5.269c-0.221-1.085-0.439-3.274-0.663-6.564
					c-0.038-0.526-0.05-1.278-0.05-2.263c0.008-0.981-0.006-1.735-0.045-2.26c0.045-0.003,0.115-0.056,0.205-0.16
					c0.008-1.963,0.306-3.566,0.896-4.806c0.123-0.247,0.524-0.731,1.191-1.447c2.054-2.198,5.134-4.088,9.247-5.658
					c1.82-0.707,5.316-1.761,10.494-3.169c1.883-0.51,3.282-0.731,4.198-0.647c1.111,0.118,2.123,0.611,3.048,1.483
					c0.922,0.872,1.541,1.848,1.852,2.928c0.103,0.09,0.208,0.224,0.32,0.409l2.165,8.547c0.199,0.802,0.578,2.142,1.14,4.021
					L258.52,158.324z"/>
				<path fill="#FFFFFF" d="M273.994,151.841c0.186,0.443,0.227,1.377,0.131,2.781c-0.094,1.402-0.24,2.364-0.435,2.877
					c0.011,0.151,0.004,0.365-0.013,0.634c-0.144,0.735-0.433,1.854-0.865,3.337c0.071,1.104-0.45,2.327-1.59,3.674
					c-0.143,0.162-0.55,0.342-1.229,0.544c-0.403,0.216-1.349,0.19-2.822-0.096c-0.427-0.084-1.469-0.454-3.124-1.107
					c-0.397-0.205-1.183-0.514-2.362-0.929c-0.315-0.095-0.809-0.353-1.489-0.763c-0.926-0.555-1.51-0.995-1.761-1.317
					c-0.342-0.474-0.482-1.172-0.43-2.098c0.029-0.117,0.106-0.448,0.22-0.992c-0.032-0.421,0.527-2.625,1.671-6.618
					c0.093-0.387,0.276-1.031,0.561-1.935c0.139-0.202,0.527-0.348,1.176-0.454c0.641-0.101,1.016-0.232,1.122-0.393
					c0.688-0.048,1.319-0.051,1.898-0.014c2.501,0.174,4.869,0.608,7.105,1.298C272.973,150.641,273.719,151.171,273.994,151.841z
					 M282.727,197.928c0.012,0.154-0.126,0.415-0.397,0.779c-0.747,0.971-1.384,1.672-1.937,2.092
					c-0.371,0.174-0.854,0.46-1.436,0.847c-1.725,1.153-3.368,2.053-4.935,2.698c-0.587,0.348-1.966,0.902-4.139,1.665l-1.493,0.101
					c-0.834,0.06-1.364-0.056-1.576-0.353c-0.76-1.061-1.372-3.034-1.843-5.92c-0.133-0.877-0.548-3.88-1.25-9.015
					c-0.038-0.078-0.102-0.168-0.186-0.274c0.018-0.27-0.121-1.161-0.413-2.678c-0.121-0.566-0.217-1.158-0.295-1.764
					c-0.413-3.239-0.666-5.524-0.759-6.864l-0.238-3.438c-0.16-2.366-0.299-3.914-0.426-4.635c-0.085-0.07-0.25-0.252-0.498-0.541
					c-0.045-0.115,0.028-0.427,0.217-0.937c0.226-0.168,0.914-0.427,2.078-0.777c3.083-0.938,5.114-1.443,6.108-1.514l2.685-0.183
					c1.227-0.045,2.121,0.37,2.678,1.257c0.258,0.403,0.611,1.419,1.068,3.039c0.136,0.225,0.291,0.55,0.473,1.001
					c0.208,0.794,0.538,1.979,0.99,3.559c0.317,0.676,0.551,1.271,0.7,1.8c1.44,4.739,2.75,10.271,3.962,16.603
					c0.056,0.301,0.211,0.89,0.464,1.753C282.564,196.943,282.699,197.507,282.727,197.928z"/>
				<path fill="#FFFFFF" d="M331.629,185.503c-0.379,1.22-0.95,2.387-1.71,3.514c-2.698,3.864-5.087,6.388-7.192,7.565
					c-0.771,0.438-1.332,0.667-1.677,0.695c-1.029,0.064-2.487-1.04-4.366-3.331c-0.297-0.359-1.338-1.862-3.129-4.504
					c-1.318-1.896-2.507-3.274-3.562-4.121c-0.947,0.718-1.713,1.617-2.285,2.694c-1.164,2.078-2.649,4.545-4.444,7.399
					c-1.242,2.002-2.891,3.948-4.949,5.824c-0.073,0.036-0.776,0.701-2.105,1.985c-0.987,0.718-2.207,1.13-3.656,1.229
					c-2.597,0.176-4.341-0.488-5.255-2c-0.214-0.364-0.359-1.068-0.433-2.097c-0.056-0.803,0.135-2.198,0.578-4.184
					c0.376-1.795,0.757-3.163,1.152-4.111c0.827-2.013,1.93-4.888,3.317-8.634c0.65-1.735,0.937-2.943,0.847-3.625
					c-0.65-1.11-1.8-2.471-3.443-4.083c-2.625-2.585-4.879-4.94-6.752-7.083c-1.332-1.52-1.965-2.936-1.901-4.248
					c-0.021-0.3-0.01-0.743,0.024-1.32c0.162-0.438,0.715-1.338,1.661-2.703c0.02-0.196,0.059-0.451,0.117-0.76
					c2.42-4.347,5-6.52,7.72-6.514c1.949-0.02,3.979,1.068,6.091,3.264c1.853,1.94,3.889,3.895,6.096,5.85
					c1.149-0.999,2.276-2.454,3.379-4.369c0.889-1.638,1.77-3.267,2.655-4.896c0.028-0.124,0.076-0.278,0.146-0.478
					c1.065-1.8,1.969-3.14,2.709-4.037c1.422-1.744,2.731-2.712,3.942-2.916c0.645-0.115,1.38-0.202,2.221-0.264
					c2.215-0.191,4.615-0.168,7.201,0.084c0.807,0.056,1.317,0.252,1.536,0.58c0.376,0.514,0.472,1.657,0.286,3.43
					c-0.219,2.316-0.863,4.702-1.918,7.15c-0.903,1.979-1.822,3.976-2.759,6c-1.257,2.922-1.849,4.879-1.778,5.872
					c0.031,0.493,0.446,1.233,1.239,2.215c2.979,3.743,5.232,6.696,6.764,8.853c1.071,1.612,2.179,3.32,3.343,5.12
					C331.383,184.771,331.489,185.097,331.629,185.503z"/>
			</g>
			<g>
				<path fill="#FFFFFF" d="M163.333,205.98c-2.519,0.354-4.844-1.404-5.19-3.908c-0.357-2.532,1.408-4.852,3.918-5.199
					c2.522-0.358,4.85,1.408,5.197,3.915C167.605,203.314,165.844,205.633,163.333,205.98z"/>
				<path fill="#FFFFFF" d="M158.898,174.094c-2.509,0.339-4.837-1.419-5.19-3.932c-0.345-2.518,1.413-4.84,3.92-5.185
					c2.512-0.351,4.844,1.396,5.202,3.923C163.178,171.419,161.417,173.746,158.898,174.094z"/>
				<path fill="#FFFFFF" d="M195.228,201.551c-2.51,0.354-4.838-1.408-5.2-3.926c-0.322-2.518,1.413-4.834,3.933-5.193
					c2.52-0.348,4.853,1.41,5.197,3.935C199.504,198.875,197.749,201.197,195.228,201.551z"/>
				<path fill="#FFFFFF" d="M190.8,169.655c-2.523,0.35-4.839-1.408-5.19-3.926c-0.352-2.521,1.395-4.832,3.924-5.19
					c2.509-0.351,4.85,1.413,5.193,3.92C195.061,166.972,193.304,169.305,190.8,169.655z"/>
				<path fill="#FFFFFF" d="M177.071,187.822c-2.522,0.354-4.842-1.413-5.206-3.926c-0.34-2.518,1.401-4.846,3.929-5.196
					c2.517-0.345,4.848,1.411,5.19,3.929C181.339,185.136,179.583,187.46,177.071,187.822z"/>
			</g>
			<g>
				<path fill="#FFFFFF" d="M354.308,182.068c-2.417,0.345-4.66-1.357-4.999-3.774c-0.34-2.437,1.354-4.672,3.782-5.005
					c2.429-0.348,4.677,1.359,5.014,3.774C358.441,179.494,356.736,181.729,354.308,182.068z"/>
				<path fill="#FFFFFF" d="M350.046,151.316c-2.429,0.334-4.672-1.365-5.011-3.782c-0.334-2.435,1.359-4.675,3.777-5
					c2.428-0.342,4.668,1.349,5.014,3.777C354.168,148.737,352.469,150.98,350.046,151.316z"/>
				<path fill="#FFFFFF" d="M385.068,177.798c-2.426,0.334-4.66-1.36-5.008-3.788c-0.314-2.423,1.356-4.66,3.785-5.003
					c2.434-0.339,4.683,1.357,5.014,3.791C389.188,175.221,387.502,177.456,385.068,177.798z"/>
				<path fill="#FFFFFF" d="M380.798,147.043c-2.429,0.328-4.663-1.362-5.006-3.788c-0.336-2.434,1.352-4.663,3.786-5.014
					c2.428-0.331,4.683,1.368,5.008,3.791C384.914,144.455,383.223,146.704,380.798,147.043z"/>
				<g>
					<path fill="#00467F" d="M222.45,119.37c0.087,1.521,0.785,2.675,2.069,3.476l25.382-2.822c0.121-1.016,0.282-2.361,0.477-4.065
						c0.264-2.517,0.415-3.575,0.461-3.228c-0.037-1.211,0.035-3.92,0.203-8.154c0.066-1.517,0.034-3.381-0.094-5.594
						c-0.192-1.01-0.285-1.643-0.285-1.897c-0.629-6.827-1.007-10.869-1.137-12.136c-0.628-8.15-0.945-13.648-0.945-16.495v-5.591
						c0-1.14,0.349-2.263,1.046-3.369c0.691-1.102,1.57-1.562,2.646-1.374c1.326,2.59,2.238,7.323,2.745,14.201
						c0.505,7.323,0.823,12.405,0.949,15.246c0.311,4.477,0.566,7.476,0.755,8.992l1.231,17.42c0.151,1.99,0.475,3.652,0.946,5.044
						l31.144-3.467c-0.005-0.367-0.126-0.736-0.375-1.106c0.129-1.514,0.157-2.589,0.095-3.216
						c-0.695-7.004-1.169-11.736-1.419-14.201l-1.233-11.079c-0.628-5.678-0.976-8.965-1.04-9.844
						c-0.188-2.211-0.283-3.602-0.283-4.167c0.126-4.671-0.601-12.088-2.176-22.247c-1.133-7.386-3.759-12.278-7.857-14.675
						c-0.446-0.255-1.139-0.411-2.088-0.475c-0.19-0.127-0.315-0.19-0.38-0.19c-1.005-0.125-2.045-0.188-3.118-0.188
						c-4.297,0-10.765,1.737-19.414,5.208c-0.563-0.572-1.039-1.422-1.42-2.562c-0.184-0.82-0.405-1.639-0.661-2.459
						c-1.326-2.901-3.379-4.352-6.155-4.352c-0.252,0-2.835,0.505-7.759,1.514c-0.887,0.189-1.459,0.348-1.709,0.475
						c-4.105,0.314-6.944,1.959-8.514,4.928c-0.07,0.443-0.098,0.822-0.098,1.136c-0.257,0.377-0.446,0.632-0.568,0.758
						c-0.189,4.551-0.317,8.09-0.381,10.613c-0.379,9.165-0.694,16.047-0.942,20.66c-0.443,9.096-0.599,21.291-0.477,36.581
						C222.141,111.219,222.263,115.449,222.45,119.37z"/>
					<path fill="#00467F" d="M250.84,112.73c0.001,0.146,0.008,0.28,0.014,0.381C250.854,112.913,250.848,112.802,250.84,112.73z"/>
					<path fill="#00467F" d="M348.991,66.223c0.25,0.126,0.853,0.251,1.801,0.378c2.266,0.38,4.509,0.662,6.721,0.854
						c0.508,0.06,0.819,0.317,0.945,0.757c0.505,1.642,0.727,3.754,0.661,6.343c-0.062,3.03-0.089,5.49-0.089,7.386l-0.382,7.192
						c-0.129,2.272-0.19,4.702-0.19,7.291c-0.186,0.441-0.348,0.789-0.477,1.04c-0.062,0.188-0.028,1.329,0.101,3.41
						c0,0.378,0,0.914,0,1.608c0,0.694-0.033,1.199-0.101,1.513v0.237v2.225c0,0.512,0,1.015,0,1.517l0.005,0.026l12.703-1.415
						c1.44-0.16,2.898-0.243,4.352-0.243c10.431,0,19.97,4.08,27.036,10.804c0.229-0.3,0.427-0.61,0.595-0.938
						c1.197-3.281,2.083-5.992,2.652-8.139c0.314-2.717,0.505-4.581,0.566-5.588c0-0.255-0.084-0.613-0.238-1.088
						c-0.154-0.474-0.232-0.807-0.232-0.992c-0.067-1.768-0.096-2.967-0.096-3.599c-0.126-2.208-0.225-3.753-0.286-4.641
						c-0.188-5.49-0.571-9.245-1.139-11.267c-0.439-1.573-0.914-2.648-1.419-3.218c-0.687-0.691-1.828-1.039-3.403-1.039
						c-1.834,0-3.665,0.471-5.49,1.417c-2.024,1.074-3.317,2.397-3.887,3.977c-1.452,4.228-2.302,7.92-2.558,11.076l-0.28,0.287
						c-1.205-0.062-2.019-0.099-2.465-0.099c-1.326-0.061-2.05-0.188-2.176-0.377c-0.12-0.948-0.188-1.956-0.188-3.028l1.233-12.403
						c0.314-3.723,0.53-6.246,0.656-7.572c0.062-0.631,0.382-1.311,0.951-2.036c0.563-0.724,1.138-1.185,1.701-1.375l10.134-3.216
						c2.899-0.886,4.479-1.545,4.73-1.988c0.508-0.756,0.692-1.61,0.569-2.558c-0.188-1.388-0.291-2.274-0.291-2.648
						c0-6.504-2.269-10.226-6.809-11.175c-1.772-0.188-3.502-0.407-5.21-0.662h-5.395c-0.064,0-0.343,0.034-0.85,0.1h-1.049
						c-0.566-4.61-0.845-8.648-0.845-12.125c-0.134-1.514-0.605-2.68-1.424-3.5c-1.644-0.885-2.874-1.42-3.693-1.608
						c-1.954-0.38-3.403-0.537-4.354-0.471c-2.585,0.188-5.585,1.262-8.995,3.216c-1.509,0.884-2.336,1.577-2.462,2.082
						c-0.313,3.348-0.474,6.376-0.474,9.089v5.492h-0.379c-1.641-0.315-4.065-0.223-7.29,0.286c-1.89,0.311-3.183,1.358-3.881,3.122
						c-1.065,5.997-1.576,10.287-1.509,12.874C347.163,64.583,347.791,65.717,348.991,66.223z"/>
					<path fill="#00467F" d="M290.854,46.107c0.156,0.443,0.24,0.792,0.24,1.042c-0.064,2.083,0.314,6.386,1.133,12.896
						c0.376,2.908,0.601,4.865,0.665,5.875c0.188,2.463,0.508,4.201,0.942,5.21c0.703,1.582,1.993,2.689,3.883,3.323
						c1.268,0.252,2.4,0.503,3.41,0.759c2.844,0.692,4.29,1.042,4.357,1.042c5.619,0.885,10.857,1.675,15.72,2.371
						c1.194,1.263,1.921,2.18,2.176,2.745c1.514,3.605,2.052,5.818,1.604,6.638c-0.247,0.444-0.656,0.823-1.228,1.137
						c-0.186,0.127-0.693,0.349-1.515,0.663c-2.081,1.455-4.354,2.183-6.813,2.183c-0.511-1.074-1.016-2.368-1.515-3.882
						c-0.695-2.083-1.359-4.013-1.991-5.776c-0.566-1.579-1.172-2.493-1.794-2.747c-0.637-0.25-1.834-0.25-3.598,0
						c-3.037,0.506-5.087,0.855-6.157,1.049c-2.973,0.568-4.899,1.358-5.782,2.37c-0.188,0.064-0.345,0.16-0.468,0.284
						c-0.259,0.825-0.472,1.457-0.662,1.903c-0.253,3.86-0.382,6.266-0.382,7.21c-0.059,2.792-0.03,5.255,0.096,7.407
						c-0.126,0.191-0.225,0.318-0.283,0.381c0.249,0.192,0.384,0.571,0.384,1.141c0,0.375-0.067,0.853-0.196,1.42
						c-0.059,0.19-0.03,0.425,0.096,0.714c0.123,0.284,0.19,0.457,0.19,0.524c0.062,1.833,0.096,2.908,0.096,3.228
						c0,0.378-0.034,0.661-0.096,0.854c0.247,2.466,0.819,4.02,1.699,4.653c1.522,0.969,3.842,1.466,6.932,1.505l45.434-5.057
						c0.99-1.615,1.719-3.905,2.173-6.888c0.062-0.443,0.062-0.854,0-1.231c0.186-0.886,0.314-2.12,0.379-3.699
						c0.07-0.378,0.126-0.632,0.188-0.761c0.062-0.817,0.102-2.651,0.102-5.497V85.69c0-3.729-0.449-8.251-1.327-13.56
						c0-0.188,0.028-0.348,0.088-0.473c-1.004-4.551-2.33-7.209-3.963-7.966c-2.705-0.952-4.31-1.486-4.814-1.612
						c-3.213-0.822-5.378-1.36-6.511-1.614c-0.695-0.38-1.2-0.695-1.511-0.948c-4.092-0.378-6.452-0.572-7.084-0.572h-1.791
						c-0.693,0-1.268,0-1.705,0c-0.376,0.064-0.409,0.1-0.09,0.1h-3.123c-0.5,0-1.068-0.035-1.694-0.1h-1.228
						c-0.253-0.184-0.412-0.315-0.472-0.377c-0.313-1.517-0.535-3.217-0.661-5.109c-0.32-3.725-0.472-5.905-0.472-6.535
						c0-0.375,0.045-0.946,0.135-1.705c0.099-0.754,0.146-1.327,0.146-1.704c1.708-0.76,2.939-1.136,3.693-1.136
						c0.316,0,0.563,0.063,0.754,0.187c0.695,1.077,1.486,2.625,2.367,4.644c0.574,1.386,1.138,2.805,1.71,4.261
						c0.886,1.954,1.73,2.932,2.558,2.932c2.462,0.062,5.706-0.665,9.741-2.18c4.425-1.647,7.2-3.356,8.339-5.13
						c0.502-0.82,0.53-2.056,0.096-3.703c-1.453-5.378-2.435-9.021-2.937-10.917c-1.073-3.922-2.111-6.74-3.126-8.449
						c-0.948-0.948-1.576-1.521-1.893-1.708l-1.043-0.667c-1.074-0.505-2.74-1.011-5.017-1.519c-0.505-0.123-0.85-0.19-1.038-0.19
						h-10.324c-1.004,0-4.576,0.538-10.7,1.614c-1.382,0.252-2.81,0.602-4.256,1.042c-7.832,2.466-11.929,5.72-12.31,9.764
						c-0.067,0.191-0.124,0.349-0.191,0.474c-0.123,6.006-0.19,9.042-0.19,9.106c0.067,1.45,0.129,2.491,0.19,3.126
						C290.617,45.32,290.699,45.667,290.854,46.107z"/>
					<path fill="#00467F" d="M524.271,58.014c-0.763-3.281-1.172-4.956-1.233-5.018c-0.566-2.274-0.914-3.757-1.032-4.45
						c-0.763-4.295-1.556-7.004-2.372-8.144c-1.326-1.827-3.853-2.743-7.576-2.743c-5.995,0-11.452,2.047-16.376,6.151
						c-0.129-0.32-0.381-1.501-0.757-3.55c-0.508-2.681-1.548-3.804-3.129-3.358c-0.124-0.127-0.219-0.191-0.281-0.191
						c-1.446-0.064-3.216,0.156-5.305,0.663c-1.699,0.443-3.41,0.886-5.109,1.325c-5.361,1.203-8.423,2.023-9.18,2.465
						c-2.468,1.389-4.016,2.937-4.641,4.645c-0.067,1.011-0.067,1.768,0,2.274c0,0.189-0.067,0.411-0.191,0.662
						c-0.126,0.254-0.193,0.443-0.193,0.569c0.193,0.57,0.385,0.981,0.575,1.232c0.123,1.014,0.255,1.8,0.373,2.368
						c0.319,3.728,0.682,7.646,1.094,11.753c0.403,4.105,0.808,10.33,1.183,18.669c0.373,8.34,0.783,14.627,1.229,18.857
						c0.314,3.097,0.628,7.619,0.947,13.553c0.13,1.958,0.222,3.251,0.283,3.885c0.247,3.476,0.575,5.779,0.951,6.916
						c1.065,3.348,3.628,5.024,7.666,5.024c2.207,0,5.364-0.509,9.467-1.517c4.357-1.073,7.352-2.141,8.989-3.218
						c0.953-0.629,1.452-1.039,1.52-1.231c0.382-1.073,0.601-2.305,0.662-3.694c0.062-1.642,0-3.686-0.19-6.149
						c-0.188-3.724-0.314-6.25-0.382-7.577c-0.062-2.397-0.438-5.332-1.133-8.802c-1.197-5.746-2.019-9.626-2.468-11.646
						l-3.785-19.22c-0.185-1.07,0.196-2.19,1.145-3.359c0.947-1.167,1.951-1.94,3.025-2.322c0.443,0.571,0.727,1.486,0.85,2.748
						c0.067,0.945,0.132,1.894,0.193,2.842c0.126,2.144,0.188,2.93,0.188,2.365c0.314,1.642,0.601,2.838,0.853,3.598
						c0.505,2.019,1.834,2.967,3.977,2.839c0.438,0,1.071,0.035,1.896,0.097c0.818,0.063,1.385,0.094,1.699,0.094
						c1.767,0,2.753-0.031,2.938-0.094c0.88-0.252,1.534-0.539,1.94-0.853c0.409-0.315,2.159-0.851,5.252-1.609
						c2.902-0.757,5.24-1.955,7.004-3.598c0.575-0.503,0.89-1.262,0.957-2.274C525.973,66.659,525.468,63,524.271,58.014z"/>
					<path fill="#00467F" d="M464.719,96.652c-0.123-0.892-0.438-1.645-0.941-2.28c-0.376-0.317-0.696-0.569-0.948-0.761
						c-0.566-1.008-1.231-1.483-1.985-1.422c-8.331,0.564-14.575,1.943-18.748,4.136c-0.19,0.253-0.348,0.441-0.471,0.565v0.283
						c-0.25,0.439-0.415,0.787-0.477,1.033c-0.688,5.019-1.071,7.714-1.139,8.091c-0.185,0.125-0.309,0.22-0.375,0.283
						c-2.776-0.318-4.479-0.98-5.112-1.989c-0.19-0.44-0.283-0.882-0.283-1.325c-0.129-2.211-0.19-3.344-0.19-3.411v-4.827
						c2.838-0.883,5.429-1.578,7.759-2.081c5.243-1.076,8.869-1.802,10.894-2.179c0.757-0.125,2.557-0.349,5.397-0.662
						c2.392-0.252,4.097-0.569,5.112-0.949c0.628-0.249,1.003-0.976,1.133-2.177c0.507-8.454,0.785-14.798,0.852-19.028
						c0.063-1.893,0-3.975-0.188-6.249c-0.566-6.501-1.142-11.076-1.702-13.729c-0.062-0.314-0.351-1.229-0.855-2.744
						c-0.255-0.189-0.439-0.345-0.569-0.471c-0.566-1.329-1.929-2.687-4.071-4.073c-1.89-1.199-3.689-2.021-5.395-2.463l-0.19-0.192
						c-4.038-0.755-6.494-1.196-7.381-1.321c-1.517-0.064-2.938-0.064-4.262,0c-6.942,0.317-12.563,1.2-16.847,2.651
						c-3.415,1.897-5.024,4.074-4.834,6.539c-0.123,0.19-0.258,0.252-0.384,0.19c0.066,0.189-0.244,1.171-0.945,2.939
						c-0.752,2.717-1.419,5.813-1.985,9.288c-0.188,1.453-0.313,2.431-0.376,2.938c-0.319,1.956-0.544,3.348-0.664,4.17
						c-1.641,10.107-2.586,16.487-2.835,19.142c-0.325,3.979-0.516,7.583-0.572,10.802c-0.067,2.782-0.348,6.761-0.853,11.941
						c-0.319,0.693-0.634,1.202-0.947,1.514c0.123,1.266,0.188,3.511,0.188,6.729l0.382,2.75c0.505,3.854,2.997,6.793,7.478,8.816
						c3.091,1.45,6.882,2.333,11.356,2.649c5.878,0.442,9.82,0.76,11.839,0.949c6.438,0.508,10.697,0.724,12.78,0.661
						c4.549-0.124,7.603-1.007,9.181-2.654c0.889-1.771,1.394-3.197,1.518-4.271c1.006-3.673,1.55-6.009,1.606-7.024
						c0.062-0.567,0-2.652-0.186-6.263C465.039,101.806,464.786,96.963,464.719,96.652z M437.178,60.476
						c0.247-0.315,0.847-0.632,1.792-0.952c0.44-0.124,0.914-0.124,1.422,0c1.009,1.015,1.767,3.73,2.271,8.146
						c0.382,4.038,0.665,7.066,0.855,9.085c-4.04,1.014-7.1,1.705-9.186,2.085c-0.188,0.129-0.373,0.283-0.563,0.475
						C433.824,70.034,434.963,63.758,437.178,60.476z"/>
					<path fill="#00467F" d="M129.89,137.986c2.127,0.379,3.921,0.682,5.409,0.908c5.747-4.621,12.667-7.53,20.133-8.361
						l1.172-0.129c0.153-0.286,0.312-0.566,0.443-0.881c0.827-2.015,1.044-3.965,0.65-5.86c-1.262-5.992-1.974-10.253-2.131-12.78
						l-0.354-0.355l-4.378-29.111c-1.26-8.123-1.893-12.382-1.893-12.782c-1.18-11.991-2.448-20.353-3.792-25.086
						c-0.47-1.814-1.217-3.983-2.243-6.51c-2.288-5.836-5.322-9.664-9.11-11.477c-1.184-0.554-2.687-0.715-4.498-0.474
						c-11.049,1.499-22.449,7.926-34.196,19.288c-0.558-1.026-1.069-2.758-1.539-5.206c-0.482-2.445-1.029-4.219-1.663-5.325
						c-1.654-2.999-4.534-4.5-8.636-4.5c-2.128,0-6.116,1.186-11.952,3.55c-3.707,1.503-6.233,2.487-7.572,2.959
						c-3.633,2.212-5.369,3.316-5.21,3.316c-0.159,0-0.315-0.04-0.472-0.118c-0.476-3.711-1.068-6.549-1.779-8.521
						c-0.074-0.393-0.116-0.709-0.116-0.945c-0.791-1.422-1.419-2.252-1.89-2.487c-0.869-0.477-1.897-0.711-3.081-0.711
						c-0.791,0-2.763,0.396-5.915,1.183c-5.996,1.5-11.122,3.317-15.383,5.443c-0.474,0.948-0.713,2.295-0.713,4.025v4.377
						c0,4.736-0.236,9.588-0.709,14.558c-0.232,3.076-0.509,6.152-0.826,9.232c-0.084,1.105-0.119,2.915-0.119,5.441v11.597
						c0,1.894-0.103,3.807-0.297,5.743c-0.198,1.932-0.294,2.938-0.294,3.014c0-0.549-0.062-0.474-0.175,0.237
						c-0.119,0.708-0.182,1.654-0.182,2.837v17.399c0,4.579-0.115,8.874-0.355,12.9c-0.1,1.262-0.298,2.323-0.591,3.194
						c-0.234,6.394-0.234,10.061,0,11.009c0.321,1.183,1.202,2.125,2.643,2.838c1.443,0.712,2.845,1.065,4.205,1.065
						c0.484,0,0.843-0.04,1.084-0.118c0.157,0.078,0.157,0.196,0,0.354c1.939,0.045,3.467,0.072,4.611,0.095v-0.33h0.947v0.342
						c0.5,0.009,0.899,0.011,1.154,0.011l9.072,0.359c3.225,0.151,6.131-0.556,8.725-2.128c2.2-2.532,3.179-8.724,2.943-18.585
						c0.193-3.55,0.394-6.191,0.593-7.928v-8.167c-0.262-7.255-0.46-12.185-0.593-14.794c-0.474-7.491-1.023-14.198-1.659-20.117
						v-2.839c-0.157-0.709,0.202-1.457,1.067-2.247c0.862-0.788,1.659-1.181,2.368-1.181c0.868,0.234,1.5,1.337,1.89,3.31
						c0.157,0.709,0.398,2.368,0.712,4.972c0.551,4.341,0.829,7.928,0.829,10.771v11.83c0.159,3.237,0.435,6.235,0.827,8.996v5.442
						c0,9.465,0.669,18.501,2.016,27.102c0.864,0.472,1.457,0.83,1.776,1.063c1.496,1.343,2.4,2.049,2.719,2.128
						c1.815,0.398,3.391,0.513,4.731,0.358c0.872-0.078,1.896-0.078,3.08,0c1.655,0.154,2.645,0.236,2.956,0.236
						c8.6,0,13.651-0.196,15.15-0.595c3.551-0.945,5.44-2.008,5.681-3.191c0.944-4.733,1.378-8.166,1.3-10.296
						c-0.159-6.315-0.276-10.573-0.356-12.782c-0.313-8.52-1.105-15.777-2.367-21.775c-0.314-3.707-0.471-7.297-0.471-10.769
						c0-1.105-0.043-2.761-0.119-4.97c-0.081-2.207-0.116-3.86-0.116-4.97c0-2.207,0.078-3.077,0.235-2.604
						c-0.314-1.814,0.708-3.432,3.078-4.851c1.657-0.786,3.351-1.579,5.085-2.365c0.238-0.081,0.474-0.081,0.713,0
						c0.782,1.104,1.301,2.288,1.54,3.552c0.704,3.862,1.104,9.032,1.185,15.5c0.231,16.727,0.426,25.837,0.591,27.336
						c0.231,2.445,0.509,4.3,0.825,5.559c0.474,3.79,0.713,5.997,0.713,6.632c0.158,1.967,0.314,3.429,0.47,4.377
						c0.157,3.39,0.276,5.481,0.357,6.269c0.313,2.447,1.141,3.987,2.483,4.615c0.631,0.314,2.407,0.595,5.322,0.833
						C128.148,137.552,129.573,137.905,129.89,137.986z"/>
					<path fill="#00467F" d="M38.172,142.834h0.947v-0.011c-0.279,0-0.591-0.006-0.947-0.012V142.834z"/>
					<path fill="#00467F" d="M156.646,82.722l0.096,0.849c0.444,3.027,0.76,5.493,0.947,7.39c1.143,4.732,1.9,7.949,2.28,9.65
						c1.08,5.431,1.776,9.123,2.088,11.081c0.129,0.315,0.224,0.53,0.289,0.661c0.506,2.715,0.854,4.764,1.044,6.155
						c0.189,0.568,0.348,1.005,0.471,1.326c0.829,3.279,1.964,5.269,3.418,5.96c2.221,1.011,5.292,1.577,9.217,1.709l4.978,0.132
						l27.197-3.021c1.834-1.036,3.324-2.376,4.479-4.021c1.144-1.64,1.716-3.697,1.716-6.153c0-0.066,0.028-0.19,0.089-0.383
						c0.065-0.185,0.099-0.349,0.099-0.474c0.503-2.522,0.756-5.872,0.756-10.036c0-0.248-0.088-0.537-0.282-0.851v-0.757
						c0-0.696,0.092-1.229,0.282-1.608c-0.124-0.694-0.124-1.799,0-3.316c0-0.373,0-0.608,0-0.758c0-0.06,0-0.105,0-0.166
						c0-0.961,0-1.546,0-1.724c0.126-0.759,0.255-1.295,0.38-1.611c0.202-3.281,0.338-4.987,0.401-5.109
						c0.206-1.267,0.339-2.341,0.408-3.223l0.303-0.283c-0.069-0.569-0.034-1.55,0.097-2.934c0-0.125,0.053-0.315,0.153-0.568
						c0.106-0.257,0.154-0.439,0.154-0.569c0-0.188,0-0.505,0-0.945v-0.757c0,0.061,0-0.221,0-0.856
						c0.066-1.133,0.066-1.987,0-2.555c0.125-2.715,0.251-5.146,0.377-7.292c0-0.188,0-0.314,0-0.375
						c0.063-0.566,0.063-0.945,0-1.134c0-0.066,0-0.132,0-0.189c-0.062-1.896-0.062-3.126,0-3.695c0-1.071,0-1.893,0-2.459v-9.275
						c0-0.189-0.062-0.413-0.188-0.667c-0.123-0.25-0.189-0.405-0.189-0.47c0-0.127,0-0.29,0-0.478c0-0.505-0.125-1.26-0.38-2.269
						c-0.314-0.572-0.568-0.98-0.756-1.232c-1.011-2.271-3.775-4.196-8.283-5.779c-4.515-1.573-7.651-2.645-9.422-3.216
						c-6.818-2.334-12.242-3.376-16.281-3.123c-2.463,0.506-4.01,0.888-4.642,1.133c-0.886,0.571-1.764,1.171-2.648,1.798
						c-3.347,2.594-7.069,6.284-11.171,11.081c-2.4,2.775-4.074,4.698-5.017,5.776c-1.957,2.329-3.225,4.698-3.792,7.1
						c-0.31,1.387-0.342,4.918-0.093,10.603C155.343,73.254,155.824,77.229,156.646,82.722z M181.257,67.104
						c1.386-2.971,2.398-4.676,3.025-5.115c0.19-0.133,2.117,0.377,5.779,1.51c1.388,0.444,2.209,1.203,2.459,2.275
						c0.129,0.441,0.157,1.667,0.097,3.694c-0.062,2.898-0.129,4.57-0.185,5.015c-0.386,2.968-0.637,4.826-0.763,5.584
						l-0.854,15.338c-0.313,5.238-0.91,9.877-1.799,13.919c-0.816-0.759-1.417-1.2-1.797-1.328
						c-1.328-0.569-2.081-1.036-2.272-1.416c-0.5-3.035-0.817-5.211-0.948-6.535l-2.081-14.297
						c-0.886-5.932-1.327-10.699-1.327-14.294C180.592,69.495,180.815,68.044,181.257,67.104z"/>
				</g>
				<path fill="#FFFFFF" d="M367.563,164.557c-2.431,0.34-4.669-1.365-5.017-3.788c-0.331-2.422,1.347-4.668,3.786-5.005
					c2.428-0.334,4.677,1.36,5.005,3.788C371.682,161.966,369.988,164.212,367.563,164.557z"/>
			</g>
		</g>
	</g>
</g>
</svg>
